{"title":"Penthouse North 2013 BRRip 480p x264  AAC - VYTO [P2PDL]","uid":8614516,"size":323348979,"categoryP":"video","categoryS":"movies","magnet":"?xt=urn:btih:92de8417cd6b02391cfe032d163b2c8213dba3ff&amp;dn=Penthouse+North+2013+BRRip+480p+x264++AAC+-+VYTO+%5BP2PDL%5D&amp;tr=udp%3A%2F%2Ftracker.openbittorrent.com%3A80&amp;tr=udp%3A%2F%2Fopen.demonii.com%3A1337&amp;tr=udp%3A%2F%2Ftracker.coppersurfer.tk%3A6969&amp;tr=udp%3A%2F%2Fexodus.desync.com%3A6969","seeders":0,"leechers":2,"uploader":"ValidusVyto","files":-1,"time":1372218529,"description":"_______ Visit us at our Semi Public Bittorrent Community ________\n  &lt;a href=&quot;\nhttp://p2pdl.com&quot; rel=&quot;nofollow&quot; target=&quot;_NEW&quot;&gt;\nhttp://p2pdl.com&lt;/a&gt;  _____________________________ &lt;a href=&quot; http://p2pdl.com&quot; rel=&quot;nofollow&quot; target=&quot;_NEW&quot;&gt; http://p2pdl.com&lt;/a&gt;\n\n\nPenthouse North 2013 BRRip 480p x264  AAC - VYTO\n\n\nGenre: Thriller\nPlot: A reclusive photojournalist lives quietly in a New York penthouse, until a\nsmooth but sadistic criminal looking for a hidden fortune enters her life. \nDirector: Joseph Ruben\nStars: Michelle Monaghan, Michael Keaton, Kaniehtiio Horn.\nRated: N/a\n\nInfo: &lt;a href=&quot;\nhttp://www.imdb.com/title/tt2055709/&quot; rel=&quot;nofollow&quot; target=&quot;_NEW&quot;&gt;\nhttp://www.imdb.com/title/tt2055709/&lt;/a&gt;\n\nTrailer:\n\n\nFormat                         : MPEG-4\nFile size                      : 301 MiB\nDuration                       : 1h 25mn\nOverall bit rate               : 491 Kbps\nSource                         : 720p.BluRay.x264-SEiGHT\n\nVideo\nBit rate                       : 448 Kbps\nWidth                          : 720 pixels\nHeight                         : 384 pixels\nDisplay aspect ratio           : 1.85:1\nFrame rate mode                : Constant\nFrame rate                     : 23.976 fps\nStream size                    : 274 MiB (91%)\nWriting library                : x264 core 130 r2273\nAudio\nFormat                         : AAC\nBit rate                       : 40.0 Kbps\nChannel(s)                     : 2 channels\nChannel positions              : Front: L R\nSampling rate                  : 48.0 KHz\nStream size                    : 24.5 MiB (8%)\nLanguage                       : English\n\nSubtitle                       : N/a\n &lt;a href=&quot;\nhttp://ultraimg.com/images/jQ0PM.png&quot; rel=&quot;nofollow&quot; target=&quot;_NEW&quot;&gt;\nhttp://ultraimg.com/images/jQ0PM.png&lt;/a&gt; &lt;a href=&quot;\nhttp://ultraimg.com/images/bMlXd.png&quot; rel=&quot;nofollow&quot; target=&quot;_NEW&quot;&gt;\nhttp://ultraimg.com/images/bMlXd.png&lt;/a&gt; &lt;a href=&quot;\nhttp://ultraimg.com/images/4cP6U.png&quot; rel=&quot;nofollow&quot; target=&quot;_NEW&quot;&gt;\nhttp://ultraimg.com/images/4cP6U.png&lt;/a&gt; &lt;a href=&quot;\nhttp://ultraimg.com/images/FOz3m.png&quot; rel=&quot;nofollow&quot; target=&quot;_NEW&quot;&gt;\nhttp://ultraimg.com/images/FOz3m.png&lt;/a&gt; &lt;a href=&quot;\nhttp://ultraimg.com/images/q25ek.png&quot; rel=&quot;nofollow&quot; target=&quot;_NEW&quot;&gt;\nhttp://ultraimg.com/images/q25ek.png&lt;/a&gt; &lt;a href=&quot;\nhttp://ultraimg.com/images/DXuB8.png&quot; rel=&quot;nofollow&quot; target=&quot;_NEW&quot;&gt;\nhttp://ultraimg.com/images/DXuB8.png&lt;/a&gt;\n\n----------------------------------------------------------------------------------------------------\n\n\nEncoded using revolutionary 10bit encoding, which enables us to provide you more crispier \nand sharper images at small sizes, just make sure you follow our instructions without a fault.\nRecommend to you to use latest version of VLC player. Install K-Lite Codec Pack or shark007 codecs\nin case of any kind of problem in playback (For non-VLC Media Player users). Alternatively, install\nCore AVC codecs, the fastest decoder that there is coupled with Community Center Codec Pack and play\non Windows Media Player Classic. Check sample to be sure.\nEnjoy!\n\nEncoder Notes:Looking For Early Access To Anything You Can Provide DVDScr, R5, DVDR, BluRay, Direct\nAudio, Music Releases and Seedboxes. We require dedicated servers, so as to do more \nand fast releases of movies.\nIf You Got anything to offer please contact us at &quot;&lt;a class=&quot;__cf_email__&quot; href=&quot;/cdn-cgi/l/email-protection&quot; data-cfemail=&quot;81e2eeeff5e0e2f5c1f1b3f1e5edafe2eeec&quot;&gt;[email&amp;#160;protected]&lt;/a&gt;&lt;script cf-hash='f9e31' type=&quot;text/javascript&quot;&gt;\n/* &lt;![CDATA[ */!function(){try{var t=&quot;currentScript&quot;in document?document.currentScript:function(){for(var t=document.getElementsByTagName(&quot;script&quot;),e=t.length;e--;)if(t[e].getAttribute(&quot;cf-hash&quot;))return t[e]}();if(t&amp;&amp;t.previousSibling){var e,r,n,i,c=t.previousSibling,a=c.getAttribute(&quot;data-cfemail&quot;);if(a){for(e=&quot;&quot;,r=parseInt(a.substr(0,2),16),n=2;a.length-n;n+=2)i=parseInt(a.substr(n,2),16)^r,e+=String.fromCharCode(i);e=document.createTextNode(e),c.parentNode.replaceChild(e,c)}}}catch(u){}}();/* ]]&gt; */&lt;/script&gt;&quot;.\n\nFace book Fan Page:   &lt;a href=&quot;\nhttp://fbl.me/BC&quot; rel=&quot;nofollow&quot; target=&quot;_NEW&quot;&gt;\nhttp://fbl.me/BC&lt;/a&gt;","torrent":{"xt":"urn:btih:92de8417cd6b02391cfe032d163b2c8213dba3ff","amp;dn":"Penthouse+North+2013+BRRip+480p+x264++AAC+-+VYTO+%5BP2PDL%5D","amp;tr":["udp%3A%2F%2Ftracker.openbittorrent.com%3A80","udp%3A%2F%2Fopen.demonii.com%3A1337","udp%3A%2F%2Ftracker.coppersurfer.tk%3A6969","udp%3A%2F%2Fexodus.desync.com%3A6969"],"infoHash":"92de8417cd6b02391cfe032d163b2c8213dba3ff","infoHashBuffer":{"type":"Buffer","data":[146,222,132,23,205,107,2,57,28,254,3,45,22,59,44,130,19,219,163,255]},"announce":[],"urlList":[]}}